<svg width="394" height="126" viewBox="0 0 394 126" fill="none" xmlns="http://www.w3.org/2000/svg">
<path fill-rule="evenodd" clip-rule="evenodd" d="M245.323 5.1356C229.966 12.2846 205.873 36.3876 193.599 56.8816L184.579 71.9426L176.157 61.8676C160.882 43.5946 140.946 33.2896 131.801 38.9416C121.643 45.2196 136.77 83.4676 158.401 106.2L171.367 119.826H163.185C126.696 119.826 16.4736 85.7046 33.1776 79.5796C38.3906 77.6686 36.1016 74.3716 29.5616 74.3716C26.0106 74.3716 18.1316 72.8746 12.0546 71.0456C0.27859 67.5016 -3.65341 67.8956 3.77959 71.8736C6.26259 73.2026 12.4866 79.5546 17.6106 85.9906C26.2556 96.8486 26.9276 97.2586 26.9276 91.6756V85.6586L37.8426 91.1896C127.666 136.706 253.345 136.789 352.952 91.3966C373.554 82.0076 371.89 82.2566 372.793 88.4256C373.408 92.6306 375.04 91.3696 383.476 80.1746L393.432 66.9596L377.794 68.6166C359.666 70.5376 358.707 71.0296 364.594 75.3856C375.723 83.6196 286.669 114.132 238.292 118.66C230.167 119.421 219.94 120.527 215.565 121.118C208.691 122.046 208.228 121.835 212.155 119.564C278.094 81.4266 308.768 -24.3984 245.323 5.1356ZM272.772 7.6786C290.557 23.7726 249.731 95.5316 211.772 114.897L202.5 119.627L201.332 110.918C200.689 106.128 197.409 96.0696 194.041 88.5656L187.918 74.9226L192.437 66.0656C213.377 25.0186 256.944 -6.6454 272.772 7.6786ZM154.899 47.2806C160.712 51.1306 169.427 59.2536 174.266 65.3306L183.063 76.3806L179.485 90.1156C176.573 101.295 176.417 105.204 178.651 111.12C182.295 120.777 181.61 120.94 170.798 112.988C131.867 84.3576 116.787 22.0366 154.899 47.2806ZM192.557 94.6786C201.174 114.71 197.311 126.636 185.63 116.065C181.39 112.228 180.089 99.0896 182.906 88.5756C184.969 80.8776 187.237 82.3126 192.557 94.6786Z" fill="white"/>
</svg>
